# xmcd
#
# Track frame offsets: 
#        150
#        23412
#        39812
#        58212
#        64242
#        91622
#        108817
#        133812
#        158150
#        181705
#        188955
#        203532
#
# Disc length: 3219 seconds
#
# Revision: 16
# Processed by: cddbd v1.5.2PL0 Copyright (c) Steve Scherf et al.
# Submitted via: ExactAudioCopy v1.3
#
DISCID=8e0c910c
DTITLE=Stone Temple Pilots - Core
DYEAR=1992
DGENRE=Alternative
TTITLE0=Dead and Bloated
TTITLE1=Sex Type Thing
TTITLE2=Wicked Garden
TTITLE3=No Memory
TTITLE4=Sin
TTITLE5=Naked Sunday
TTITLE6=Creep
TTITLE7=Piece of Pie
TTITLE8=Plush
TTITLE9=Wet My Bed
TTITLE10=Crackerman
TTITLE11=Where the River Goes
EXTD=Copyright 1992 Atlantic Recording Corporation for the United Stat
EXTD=es and WEA International Inc. for the world outside of the United
EXTD=States.\n YEAR: 1992 ID3G:  17
EXTT0=
EXTT1=
EXTT2=
EXTT3=
EXTT4=
EXTT5=
EXTT6=
EXTT7=
EXTT8=
EXTT9=
EXTT10=
EXTT11=
PLAYORDER=
